<svg width="511" height="512" viewBox="0 0 511 512" fill="none" xmlns="http://www.w3.org/2000/svg">
<g clip-path="url(#clip0)">
<path d="M30.5078 135.828C30.5039 135.883 30.5 135.938 30.5 135.992V375.996C30.5 376.051 30.5039 376.105 30.5078 376.16C30.5586 381.406 33.3906 386.387 38.1289 389.059L248.012 509.992C255.871 514.52 263.082 509.973 262.98 509.996C443.254 406.125 472.887 389.051 472.988 388.996C473.09 388.895 480.41 384.852 480.496 376.16C480.5 376.105 480.504 376.051 480.504 375.996V135.992C480.504 135.938 480.5 135.883 480.496 135.828C480.449 130.754 477.77 125.859 473.207 123.129C473.133 123.086 473.066 123.039 472.992 122.996L262.988 1.99612C258.477 -0.601531 252.742 -0.726531 248.012 1.99612L38.0117 122.996C33.4805 125.602 30.5586 130.523 30.5078 135.828V135.828ZM240.5 470.906L76.6094 375.496L136.207 341.438L240.5 401.047V470.906ZM240.5 366.492L150.5 315.055V213.27L240.5 264.699V366.492ZM270.5 471.039V401.047L374.797 341.441L435.363 376.051L270.5 471.039ZM270.5 366.492V264.699L360.504 213.27V315.055L270.5 366.492ZM450.504 350.148L390.504 315.859V196.125L450.504 161.84V350.148ZM270.5 40.9453L435.363 135.938L374.797 170.547L270.5 110.941V40.9453ZM255.5 136.922L344.562 187.824L255.5 238.719L166.438 187.824L255.5 136.922ZM240.5 40.9453V110.941L136.207 170.547L75.6406 135.938L240.5 40.9453ZM60.5 161.84L120.5 196.125V315.863L60.5 350.148V161.84Z" fill="white"/>
</g>
<defs>
<clipPath id="clip0">
<rect width="511" height="512" fill="white"/>
</clipPath>
</defs>
</svg>
