<svg width="84" height="82" viewBox="0 0 84 82" fill="none" xmlns="http://www.w3.org/2000/svg">
<path d="M69.125 82H14.875C6.65 82 0 75.3419 0 67.1068V14.8932C0 6.65812 6.65 0 14.875 0H69.125C77.35 0 84 6.65812 84 14.8932V67.1068C84 75.3419 77.35 82 69.125 82Z" fill="#FF26BE"/>
<path d="M67.795 78.4957H16.205C9.205 78.4957 3.5 72.7838 3.5 65.7752V16.2248C3.5 9.21624 9.205 3.50427 16.205 3.50427H67.76C74.795 3.50427 80.465 9.21624 80.465 16.2248V65.7402C80.5 72.7838 74.795 78.4957 67.795 78.4957Z" fill="#2E001F"/>
<path d="M33.2149 38.3718L43.0149 57.2248C43.1899 57.5051 43.0849 57.7855 42.8049 57.7855H36.7149C36.3299 57.7855 36.1549 57.6804 35.9799 57.3299C33.7399 52.7043 31.4649 48.0786 29.1199 43.1026H29.0499C26.9499 47.7983 24.6399 52.7393 22.3999 57.365C22.2249 57.6453 22.0499 57.7504 21.7699 57.7504H15.9949C15.6449 57.7504 15.6099 57.4701 15.7849 57.2598L25.3749 38.9675L16.0999 20.465C15.8899 20.1846 16.0999 19.9744 16.3099 19.9744H22.3299C22.6799 19.9744 22.8199 20.0445 22.9599 20.3598C25.1649 24.9855 27.4049 29.7513 29.5049 34.412H29.5749C31.6049 29.7863 33.8449 24.9855 36.0149 20.3949C36.1899 20.1145 36.2949 19.9393 36.6449 19.9393H42.2799C42.5599 19.9393 42.6649 20.1496 42.4899 20.4299L33.2149 38.3718ZM44.7299 44.0838C44.7299 35.9188 50.1549 29.541 58.7649 29.541C59.4999 29.541 59.8849 29.541 60.5849 29.6111V20.3248C60.5849 20.1145 60.7599 19.9744 60.9349 19.9744H66.4649C66.7449 19.9744 66.8149 20.0795 66.8149 20.2547V52.424C66.8149 53.3701 66.8149 54.5616 66.9899 55.8581C66.9899 56.0684 66.9199 56.1385 66.7099 56.2436C63.7699 57.6453 60.6899 58.2761 57.7499 58.2761C50.1549 58.3111 44.7299 53.6154 44.7299 44.0838ZM60.5849 35.1128C60.0949 34.9026 59.3949 34.7624 58.5549 34.7624C54.1449 34.7624 51.0649 38.1616 51.0649 43.8034C51.0649 50.2513 54.2149 52.8445 58.1699 52.8445C59.0099 52.8445 59.9199 52.7393 60.5849 52.459V35.1128Z" fill="#FFD9F2"/>
</svg>
