<svg width="82" height="82" viewBox="0 0 82 82" fill="none" xmlns="http://www.w3.org/2000/svg">
<rect width="82" height="82" fill="#31C5F0"/>
<path fill-rule="evenodd" clip-rule="evenodd" d="M26.9121 26.0962C24.9172 26.0962 23.5419 26.2953 22.8486 26.4943V39.4114C23.6953 39.5934 24.7182 39.6559 26.1389 39.6559C31.3956 39.6559 34.6633 36.9962 34.6633 32.5068C34.6408 28.489 31.8618 26.0962 26.9121 26.0962Z" fill="#26263F"/>
<path fill-rule="evenodd" clip-rule="evenodd" d="M0 0V82H82V0H0ZM40.4087 42.6568C37.0559 45.8277 32.0434 47.2486 26.2013 47.2486C24.9172 47.2486 23.7405 47.2032 22.8315 47.0723V62.7233H13.0396V19.5439C16.0803 19.0327 20.365 18.6345 26.4004 18.6345C32.5097 18.6345 36.8569 19.7881 39.7668 22.1409C42.5854 24.3403 44.4494 27.9831 44.4494 32.2682C44.4494 36.5475 43.0289 40.1903 40.4087 42.6568ZM55.1959 63.3655C51.0418 63.3655 47.3367 62.4559 44.9385 61.1489L46.6944 54.085C48.513 55.1763 52.2639 56.4832 55.1959 56.4832C58.1681 56.4832 59.4127 55.4434 59.4127 53.818C59.4127 52.1981 58.4352 51.4254 54.7529 50.1808C48.1778 47.9817 45.6486 44.4069 45.7169 40.6334C45.7169 34.7289 50.7803 30.2448 58.6343 30.2448C62.3454 30.2448 65.6528 31.0859 67.6021 32.0634L65.8514 38.8828C64.408 38.1044 61.6973 37.0586 58.9697 37.0586C56.5715 37.0586 55.2188 38.0361 55.2188 39.6559C55.2188 41.1447 56.4409 41.9233 60.3223 43.2987C66.3632 45.3615 68.8921 48.4247 68.9606 53.0906C68.9604 59.0178 64.2718 63.3655 55.1959 63.3655Z" fill="#26263F"/>
</svg>
