<svg width="60" height="60" viewBox="0 0 60 60" fill="none" xmlns="http://www.w3.org/2000/svg">
<path fill-rule="evenodd" clip-rule="evenodd" d="M23.9063 31.9866C23.1682 31.4267 22.1838 31.1482 20.9728 31.1482H14.8569V38.1841H20.8601C21.4154 38.1841 21.9421 38.135 22.4376 38.0241C22.9407 37.9141 23.387 37.7397 23.7632 37.4821C24.1394 37.2343 24.451 36.8946 24.6776 36.4626C24.9049 36.0344 25.0138 35.4782 25.0138 34.8065C25.0138 33.4894 24.6434 32.5547 23.9063 31.9866Z" fill="white"/>
<path fill-rule="evenodd" clip-rule="evenodd" d="M23.025 26.5917C23.6721 26.1194 23.9858 25.3387 23.9858 24.2681C23.9858 23.6735 23.8816 23.1822 23.6721 22.8009C23.4552 22.4196 23.1681 22.1211 22.8052 21.9123C22.4452 21.6948 22.0386 21.5446 21.5668 21.4637C21.1036 21.3731 20.6175 21.3376 20.1199 21.3376H14.8567V27.308H20.5492C21.5461 27.308 22.3713 27.0716 23.025 26.5917Z" fill="white"/>
<path fill-rule="evenodd" clip-rule="evenodd" d="M0 0V60H60V0H0ZM36.3476 18.6992H46.7045V21.2205H36.3476V18.6992ZM29.882 38.4669C29.3818 39.4168 28.7006 40.1866 27.861 40.7806C27.0149 41.38 26.0428 41.8195 24.9541 42.1056C23.8778 42.3918 22.7598 42.5358 21.6152 42.5358H9.23077V16.9851H21.2771C22.4993 16.9851 23.6022 17.0908 24.6103 17.3093C25.6127 17.522 26.4683 17.8768 27.1912 18.3633C27.9028 18.8499 28.4599 19.497 28.8587 20.3123C29.2481 21.1154 29.4434 22.1211 29.4434 23.3102C29.4434 24.5964 29.1516 25.6708 28.5679 26.5296C27.9795 27.387 27.1155 28.0907 25.9605 28.6369C27.5333 29.0888 28.6978 29.8847 29.4699 31.0164C30.2459 32.1559 30.6258 33.5192 30.6258 35.1177C30.6257 36.4133 30.3775 37.529 29.882 38.4669ZM50.7369 34.5088H37.387C37.387 35.9713 37.8815 37.356 38.6453 38.0992C39.406 38.8426 40.5061 39.2163 41.931 39.2163C42.9562 39.2163 43.8421 38.9571 44.5849 38.4407C45.3211 37.9249 45.7692 37.3734 45.9426 36.8007H50.4175C49.6985 39.0277 48.607 40.6175 47.1185 41.5746C45.6471 42.5358 43.8524 43.0147 41.7615 43.0147C40.3042 43.0147 38.9929 42.7788 37.8152 42.3141C36.6384 41.8436 35.6549 41.1843 34.8278 40.3249C34.0215 39.4613 33.3952 38.4409 32.949 37.2418C32.5075 36.0493 32.2847 34.7291 32.2847 33.2983C32.2847 31.915 32.5159 30.6226 32.9678 29.4282C33.4292 28.2297 34.0669 27.1956 34.9055 26.3281C35.7459 25.456 36.7426 24.7676 37.9033 24.2651C39.064 23.7642 40.3439 23.5122 41.7615 23.5122C43.3266 23.5122 44.6976 23.8134 45.8726 24.427C47.0436 25.032 48.0034 25.8521 48.7576 26.8787C49.5117 27.9034 50.048 29.0755 50.3835 30.3901C50.7161 31.7024 50.8327 33.0735 50.7369 34.5088Z" fill="white"/>
<path fill-rule="evenodd" clip-rule="evenodd" d="M41.609 27.3492C40.7971 27.3492 40.1252 27.4857 39.5872 27.7642C39.0613 28.039 38.6302 28.3809 38.3005 28.7836C37.9727 29.193 37.7491 29.625 37.6193 30.0869C37.4886 30.537 37.4109 30.9454 37.3872 31.3064H45.6549C45.5336 30.0107 45.0902 29.0528 44.4838 28.3792C43.8801 27.7106 42.8568 27.3492 41.609 27.3492Z" fill="white"/>
</svg>
