<svg width="512" height="512" viewBox="0 0 512 512" fill="none" xmlns="http://www.w3.org/2000/svg">
<path d="M15 481H497C505.285 481 512 474.285 512 466C512 441.617 512 71.4141 512 46C512 37.7148 505.285 31 497 31H15C6.71484 31 0 37.7148 0 46V466C0 474.285 6.71484 481 15 481ZM30 61H482V151H30V61ZM30 181H482V451H30V181Z" fill="white"/>
<path d="M176.605 275.395C170.75 269.535 161.25 269.535 155.395 275.395L95.3945 335.395C89.5352 341.25 89.5352 350.746 95.3945 356.605L155.395 416.605C161.25 422.465 170.746 422.465 176.605 416.605C182.465 410.746 182.465 401.25 176.605 395.395L127.215 346L176.605 296.605C182.465 290.75 182.465 281.25 176.605 275.395V275.395Z" fill="white"/>
<path d="M292.707 272.582C285.301 268.879 276.289 271.883 272.582 279.289L212.582 399.289C208.879 406.699 211.883 415.711 219.289 419.414C226.715 423.129 235.719 420.102 239.414 412.707L299.414 292.707C303.121 285.301 300.117 276.289 292.707 272.582V272.582Z" fill="white"/>
<path d="M356.605 275.395C350.75 269.535 341.25 269.535 335.395 275.395C329.535 281.25 329.535 290.746 335.395 296.605L384.785 346L335.395 395.395C329.535 401.25 329.535 410.746 335.395 416.605C341.25 422.465 350.75 422.465 356.605 416.605L416.605 356.605C422.465 350.746 422.465 341.25 416.605 335.395L356.605 275.395Z" fill="white"/>
<path d="M436 211H76C67.7148 211 61 217.715 61 226C61 234.285 67.7148 241 76 241H436C444.285 241 451 234.285 451 226C451 217.715 444.285 211 436 211Z" fill="white"/>
<path d="M331 106C331 114.285 324.285 121 316 121C307.715 121 301 114.285 301 106C301 97.7148 307.715 91 316 91C324.285 91 331 97.7148 331 106Z" fill="white"/>
<path d="M391 106C391 114.285 384.285 121 376 121C367.715 121 361 114.285 361 106C361 97.7148 367.715 91 376 91C384.285 91 391 97.7148 391 106Z" fill="white"/>
<path d="M451 106C451 114.285 444.285 121 436 121C427.715 121 421 114.285 421 106C421 97.7148 427.715 91 436 91C444.285 91 451 97.7148 451 106Z" fill="white"/>
<path d="M226 91H76C67.7148 91 61 97.7148 61 106C61 114.285 67.7148 121 76 121H226C234.285 121 241 114.285 241 106C241 97.7148 234.285 91 226 91Z" fill="white"/>
</svg>
