<svg width="512" height="512" viewBox="0 0 512 512" fill="none" xmlns="http://www.w3.org/2000/svg">
<path d="M76 512H436C444.285 512 451 505.285 451 497V418.422C468.461 412.227 481 395.555 481 376V196C481 176.445 468.461 159.773 451 153.578V105C451 104.988 450.996 104.977 450.996 104.965C450.988 101.004 449.398 97.1836 446.598 94.3867L356.605 4.39453C356.605 4.39453 356.605 4.39062 356.602 4.39062C353.906 1.69531 350.082 0 346 0H76C72.0195 0 68.207 1.57812 65.3945 4.39453C62.5781 7.20703 61 11.0234 61 15V153.578C43.5391 159.773 31 176.445 31 196V376C31 395.555 43.5391 412.227 61 418.422V497C61 505.285 67.7148 512 76 512ZM421 482H91V421H421V482ZM361 51.2148L399.785 90H361V51.2148ZM91 29.8984L331 29.9023V105C331 113.285 337.715 120 346 120H421V151H91V29.8984ZM61 196C61 187.73 67.7305 181 76 181H436C444.27 181 451 187.73 451 196V376C451 384.27 444.27 391 436 391H76C67.7305 391 61 384.27 61 376V196Z" fill="white"/>
<path d="M106 301C114.27 301 121 307.73 121 316C121 340.812 141.188 361 166 361C174.285 361 181 354.285 181 346C181 337.715 174.285 331 166 331C157.73 331 151 324.27 151 316C151 304.484 146.652 293.969 139.516 286C146.652 278.031 151 267.516 151 256C151 247.73 157.73 241 166 241C174.285 241 181 234.285 181 226C181 217.715 174.285 211 166 211C141.188 211 121 231.188 121 256C121 264.27 114.27 271 106 271C97.7148 271 91 277.715 91 286C91 294.285 97.7148 301 106 301Z" fill="white"/>
<path d="M346 241C354.27 241 361 247.73 361 256C361 267.516 365.348 278.031 372.484 286C365.348 293.969 361 304.484 361 316C361 324.27 354.27 331 346 331C337.715 331 331 337.715 331 346C331 354.285 337.715 361 346 361C370.812 361 391 340.812 391 316C391 307.73 397.73 301 406 301C414.285 301 421 294.285 421 286C421 277.715 414.285 271 406 271C397.73 271 391 264.27 391 256C391 231.188 370.812 211 346 211C337.715 211 331 217.715 331 226C331 234.285 337.715 241 346 241Z" fill="white"/>
<path d="M211 286C211 294.285 204.285 301 196 301C187.715 301 181 294.285 181 286C181 277.715 187.715 271 196 271C204.285 271 211 277.715 211 286Z" fill="white"/>
<path d="M331 286C331 294.285 324.285 301 316 301C307.715 301 301 294.285 301 286C301 277.715 307.715 271 316 271C324.285 271 331 277.715 331 286Z" fill="white"/>
<path d="M271 286C271 294.285 264.285 301 256 301C247.715 301 241 294.285 241 286C241 277.715 247.715 271 256 271C264.285 271 271 277.715 271 286Z" fill="white"/>
</svg>
