<svg width="512" height="512" viewBox="0 0 512 512" fill="none" xmlns="http://www.w3.org/2000/svg">
<path d="M165.875 121.004C160.754 121.047 156.18 123.687 153.52 127.68L93.582 217.586C90.9453 221.477 90.2969 226.371 91.7851 230.793L91.789 230.797C92.2969 232.023 92.8086 233.633 94.5508 235.691L244.477 415.602C244.5 415.633 244.527 415.652 244.551 415.68C247.496 419.164 251.805 421 256 421C260.18 421 264.48 419.191 267.449 415.68C267.473 415.652 267.5 415.629 267.523 415.602L417.449 235.691C419.398 233.391 419.98 231.312 420.215 230.797C420.215 230.797 420.215 230.797 420.215 230.793C421.715 226.348 421.043 221.457 418.418 217.586L358.48 127.68C355.68 123.477 350.977 121.047 346.133 121.004C346.086 121.004 346.043 121 346 121H166C165.957 121 165.918 121.004 165.875 121.004V121.004ZM256 358.566L216.812 241H295.187L256 358.566ZM350.531 169.84L377.973 211H336.812L350.531 169.84ZM373.977 241L295.371 335.324L326.812 241H373.977ZM325.187 151L311.469 192.16L284.027 151H325.187ZM287.973 211H224.027L256 163.043L287.973 211ZM227.973 151L200.531 192.16L186.812 151H227.973ZM216.629 335.324L138.023 241H185.187L216.629 335.324ZM134.027 211L161.469 169.84L175.187 211H134.027Z" fill="white"/>
<path d="M15 241C6.71484 241 0 247.715 0 256C0 264.285 6.71484 271 15 271H46C54.2852 271 61 264.285 61 256C61 247.715 54.2852 241 46 241H15Z" fill="white"/>
<path d="M497 241H466C457.715 241 451 247.715 451 256C451 264.285 457.715 271 466 271H497C505.285 271 512 264.285 512 256C512 247.715 505.285 241 497 241Z" fill="white"/>
<path d="M96.9023 373.879L75.6875 395.09C69.8281 400.949 69.8281 410.445 75.6875 416.305C81.543 422.16 91.0391 422.16 96.8984 416.305L118.113 395.09C123.973 389.23 123.973 379.734 118.113 373.879C112.258 368.02 102.762 368.02 96.9023 373.879Z" fill="white"/>
<path d="M451.312 70.6797C445.457 64.8242 435.961 64.8203 430.102 70.6797L408.887 91.8945C403.027 97.75 403.027 107.246 408.887 113.105C414.742 118.965 424.238 118.965 430.098 113.105L451.312 91.8945C457.172 86.0352 457.172 76.5391 451.312 70.6797Z" fill="white"/>
<path d="M393.887 373.879C388.027 379.734 388.027 389.234 393.887 395.09L415.102 416.305C420.957 422.16 430.453 422.16 436.312 416.305C442.172 410.445 442.172 400.949 436.312 395.09L415.098 373.879C409.242 368.02 399.742 368.02 393.887 373.879Z" fill="white"/>
<path d="M81.8984 70.6797C76.043 64.8242 66.5469 64.8242 60.6875 70.6797C54.8281 76.5391 54.8281 86.0352 60.6875 91.8945L81.9023 113.105C87.7578 118.965 97.2578 118.965 103.113 113.105C108.973 107.246 108.973 97.75 103.113 91.8945L81.8984 70.6797Z" fill="white"/>
<path d="M256 451C247.715 451 241 457.715 241 466V497C241 505.285 247.715 512 256 512C264.285 512 271 505.285 271 497V466C271 457.715 264.285 451 256 451Z" fill="white"/>
<path d="M271 46V15C271 6.71484 264.285 0 256 0C247.715 0 241 6.71484 241 15V46C241 54.2852 247.715 61 256 61C264.285 61 271 54.2852 271 46Z" fill="white"/>
</svg>
