<svg width="60" height="60" viewBox="0 0 60 60" fill="none" xmlns="http://www.w3.org/2000/svg">
<path fill-rule="evenodd" clip-rule="evenodd" d="M60 0H0V60H60V0ZM30.0588 32.6676H30.0502C29.6901 32.6676 29.348 32.5545 29.1082 32.3559L10.0804 16.6726C10.1167 16.6428 10.1622 16.625 10.2113 16.625H49.788C49.8563 16.625 49.9204 16.6605 49.958 16.7125L31.7712 31.7206L31.0092 32.351C31.001 32.3565 30.9928 32.3615 30.9847 32.3665C30.978 32.3705 30.9715 32.3745 30.9651 32.3787L30.8997 32.4207C30.6585 32.5801 30.3604 32.6676 30.0588 32.6676ZM10 40.998V18.7516L23.6307 29.9868L10 40.998ZM50 41.0037L36.3835 30.0615L50 18.8256V41.0037ZM30.0559 34.3239C30.8015 34.3239 31.5115 34.0784 32.0543 33.633L35.078 31.1373L49.9999 43.1267V43.1622C49.9999 43.2775 49.9025 43.375 49.7887 43.375H10.2141C10.0982 43.375 10 43.2775 10 43.1629V43.1246L24.9348 31.0618L28.0567 33.6365C28.5981 34.0798 29.3075 34.3239 30.0559 34.3239Z" fill="white"/>
</svg>
