<svg width="82" height="82" viewBox="0 0 82 82" fill="none" xmlns="http://www.w3.org/2000/svg">
<rect width="82" height="82" rx="10" fill="#353535"/>
<g clip-path="url(#clip0)">
<path d="M32.2417 67.2544C37.0762 67.2544 40.9999 63.3337 40.9999 58.5029V49.7515H32.2417C27.4071 49.7515 23.4834 53.6721 23.4834 58.5029C23.4834 63.3337 27.4071 67.2544 32.2417 67.2544Z" fill="#0ACF83"/>
<path d="M23.4834 41C23.4834 36.1692 27.4071 32.2485 32.2417 32.2485H40.9999V49.7515H32.2417C27.4071 49.7515 23.4834 45.8308 23.4834 41Z" fill="#A259FF"/>
<path d="M23.4839 23.4971C23.4839 18.6663 27.4076 14.7456 32.2422 14.7456H41.0004V32.2485H32.2422C27.4076 32.2485 23.4839 28.3279 23.4839 23.4971Z" fill="#F24E1E"/>
<path d="M41 14.7456H49.7583C54.5928 14.7456 58.5166 18.6663 58.5166 23.4971C58.5166 28.3279 54.5928 32.2485 49.7583 32.2485H41V14.7456Z" fill="#FF7262"/>
<path d="M58.5166 41C58.5166 45.8308 54.5928 49.7515 49.7583 49.7515C44.9237 49.7515 41 45.8308 41 41C41 36.1692 44.9237 32.2485 49.7583 32.2485C54.5928 32.2485 58.5166 36.1692 58.5166 41Z" fill="#1ABCFE"/>
</g>
<defs>
<clipPath id="clip0">
<rect width="35.0401" height="52.5088" fill="white" transform="translate(23.48 14.7456)"/>
</clipPath>
</defs>
</svg>
