<svg width="60" height="60" viewBox="0 0 60 60" fill="none" xmlns="http://www.w3.org/2000/svg">
<path fill-rule="evenodd" clip-rule="evenodd" d="M60 0H0V60H60V0ZM45.9927 23.6493C45.9693 24.804 45.8767 25.8338 45.7283 26.773C44.8119 32.5242 39.725 34.7115 34.8274 35.2141C36.5163 36.2777 37.0009 37.6123 37.0009 41.22C37.0009 43.4365 36.983 44.4751 36.9716 45.1388C36.9644 45.556 36.9598 45.8251 36.9637 46.1454C36.9755 46.9941 37.7544 47.5663 38.3221 47.9835C38.6659 48.2361 38.9324 48.4319 38.9041 48.5977C38.8293 49.0362 37.2336 48.9652 36.4877 48.7039C34.3748 47.9692 34.5859 46.2087 34.5859 46.2087L34.2679 41.3842C34.2679 41.3842 34.0857 38.7873 33.2037 38.7873V46.6875C33.2037 47.7543 33.7655 48.3599 34.1901 48.8177C34.4481 49.0958 34.6555 49.3193 34.6555 49.5585C34.6555 50.6508 32.5823 49.4556 31.9056 48.7744C30.9864 47.851 31.0291 46.0065 31.0667 44.3871C31.0712 44.1903 31.0757 43.9968 31.0784 43.8087C31.102 42.1328 31.0941 38.4646 31.0941 38.4646L30.4102 38.4794C30.4102 38.4794 30.704 46.4889 30.048 47.9511C29.2001 49.8231 26.6436 50.4692 26.6436 49.6139C26.6436 49.3653 26.7626 49.259 26.9259 49.1131C27.139 48.9228 27.4274 48.6651 27.6251 47.9361C27.9228 46.8411 27.8224 38.6736 27.8224 38.6736C27.8224 38.6736 27.0025 39.1607 27.0025 40.6908C27.0025 40.9948 26.9989 41.9204 26.9948 42.9679C26.9896 44.3334 26.9835 45.9061 26.9835 46.5794C26.9835 48.0768 24.857 48.9281 23.835 48.9281C23.3178 48.9281 22.6743 48.9021 22.6743 48.6272C22.6743 48.3444 22.9998 48.1095 23.3845 47.8321C23.9399 47.4315 24.6186 46.942 24.6186 46.0909C24.6186 44.839 24.5919 41.6292 24.5919 41.6292C24.5919 41.6292 23.6116 41.7946 22.2119 41.7946C18.6863 41.7946 17.5711 39.5456 17.0409 38.286C16.3506 36.6453 15.455 35.8786 14.5041 35.2618C13.9192 34.882 13.785 34.4366 14.4604 34.3102C16.3356 33.9565 17.3722 35.305 18.353 36.5809C19.0047 37.4288 19.6317 38.2445 20.4638 38.5074C21.9514 38.9751 23.8643 38.7719 24.8153 38.157C24.941 36.896 25.8496 35.8076 26.6065 35.2326C21.5769 34.7518 16.4567 31.9641 15.2278 25.5023C15.1417 24.7597 15.0909 23.9879 15.0909 23.1711C15.0909 19.8281 16.113 18.5267 17.4975 16.7637C17.5254 16.7282 17.5535 16.6925 17.5816 16.6566C16.4907 12.7661 17.9737 10.1067 17.9737 10.1067C17.9737 10.1067 20.2677 9.63317 24.6049 12.7388C26.9556 11.7306 33.2239 11.6458 36.1901 12.5141C38.0093 11.3124 41.339 9.60526 42.682 10.082C43.0461 10.6662 43.8291 12.3727 43.1574 16.1243C43.2431 16.2787 43.3963 16.4658 43.5887 16.7008C44.4207 17.7169 45.9854 19.628 45.9927 23.6493Z" fill="white"/>
</svg>
