<svg width="82" height="82" viewBox="0 0 82 82" fill="none" xmlns="http://www.w3.org/2000/svg">
<g clip-path="url(#clip0)">
<rect x="13" y="11" width="54" height="59" fill="white"/>
<path d="M5.16307 2.71453L10.485 70.7995C10.5649 71.8218 11.257 72.6937 12.2346 73.0036L40.2389 81.8823C40.7341 82.0393 41.2658 82.0393 41.761 81.8823L69.7653 73.0036C70.7429 72.6937 71.435 71.8218 71.5149 70.7995L76.8368 2.71453C76.9513 1.25074 75.7944 0 74.3263 0H7.6738C6.20566 0 5.0488 1.25074 5.16307 2.71453ZM63.189 23.839H28.5048L29.5515 33.4915H62.4346L60.2835 61.0094L41 67.1232L21.7165 61.0094L20.5927 46.6329H30.7142V53.6848L41.2705 56.518L51.7637 53.6848L52.5778 42.4461H20.2654L18.1202 15.0004H63.8797L63.189 23.839Z" fill="#FC490B"/>
</g>
<defs>
<clipPath id="clip0">
<rect width="82" height="82" fill="white"/>
</clipPath>
</defs>
</svg>
