<svg width="82" height="82" viewBox="0 0 82 82" fill="none" xmlns="http://www.w3.org/2000/svg">
<rect width="82" height="82" fill="#FFA426"/>
<path fill-rule="evenodd" clip-rule="evenodd" d="M33.5567 27.672C32.9184 30.2427 29.0347 45.0713 29.0347 45.0713H38.5413C38.5413 45.0713 34.3131 30.2427 33.6815 27.672H33.5567Z" fill="#704639"/>
<path fill-rule="evenodd" clip-rule="evenodd" d="M0 0V82H82V0H0ZM43.2569 63.3655L39.9358 52.3513H27.6463L24.5692 63.3655H14.4996L27.6464 20.4169H40.3737L53.6893 63.3655H43.2569ZM67.1812 63.3655H57.4811V32.2188H67.1812V63.3655ZM62.2719 28.3852C59.2199 28.3852 57.1686 26.2085 57.2373 23.5445C57.1686 20.7361 59.22 18.6345 62.347 18.6345C65.4742 18.6345 67.4256 20.7359 67.5004 23.5445C67.5004 26.2085 65.4742 28.3852 62.2719 28.3852Z" fill="#704639"/>
</svg>
