<svg width="512" height="512" viewBox="0 0 512 512" fill="none" xmlns="http://www.w3.org/2000/svg">
<path d="M497 150H488.441C448.012 60.5195 358.316 0 256 0C153.812 0 64.0391 60.3984 23.5586 150H15C6.71484 150 0 156.715 0 165V347C0 355.285 6.71484 362 15 362H23.5586C63.9883 451.48 153.684 512 256 512C358.188 512 447.961 451.602 488.441 362H497C505.285 362 512 355.285 512 347V165C512 156.715 505.285 150 497 150ZM416.988 97.5469C431.949 112.883 444.816 130.484 455.078 150H379.359C376.07 135.93 372.141 122.539 367.625 109.969C385.184 106.613 401.758 102.461 416.988 97.5469ZM390.195 74.1445C379.289 77.0273 367.781 79.5352 355.793 81.6602C349.262 68.1602 341.477 55.0195 332.145 43.1328C353.008 50.582 372.551 61.0508 390.195 74.1445ZM271 32.4648C294.477 40.207 312.738 64.5117 324.445 86.1953C307.219 88.1602 289.301 89.3867 271 89.8164V32.4648ZM271 119.824C293.828 119.305 316.156 117.605 337.445 114.809C341.629 125.777 345.324 137.547 348.484 150H271V119.824ZM241 32.4648V89.8164C222.699 89.3867 204.781 88.1602 187.555 86.1953C199.258 64.5195 217.52 40.2109 241 32.4648ZM241 119.824V150H163.52C166.676 137.547 170.371 125.777 174.555 114.809C195.844 117.605 218.172 119.305 241 119.824ZM179.855 43.1328C170.523 55.0195 162.738 68.1641 156.207 81.6602C144.223 79.5352 132.711 77.0273 121.809 74.1445C139.449 61.0508 158.992 50.582 179.855 43.1328ZM95.0117 97.5469C110.242 102.461 126.816 106.613 144.375 109.969C139.859 122.539 135.93 135.93 132.645 150H56.9258C67.1836 130.488 80.0547 112.883 95.0117 97.5469ZM95.0117 414.453C80.0547 399.117 67.1836 381.512 56.9258 362H132.645C135.934 376.07 139.859 389.461 144.375 402.031C126.816 405.387 110.242 409.539 95.0117 414.453ZM121.805 437.855C132.711 434.973 144.219 432.465 156.207 430.34C162.738 443.84 170.523 456.98 179.855 468.867C158.992 461.418 139.449 450.949 121.805 437.855ZM241 479.535C217.523 471.793 199.262 447.488 187.555 425.805C204.781 423.84 222.699 422.613 241 422.184V479.535ZM241 392.176C218.172 392.695 195.844 394.395 174.555 397.191C170.371 386.223 166.676 374.453 163.516 362H241V392.176ZM271 479.535V422.184C289.301 422.613 307.219 423.84 324.445 425.805C312.742 447.48 294.48 471.789 271 479.535V479.535ZM271 392.176V361.898H348.48C345.324 374.352 341.629 386.223 337.445 397.191C316.156 394.395 293.828 392.695 271 392.176V392.176ZM332.145 468.867C341.477 456.98 349.262 443.836 355.793 430.34C367.777 432.465 379.289 434.973 390.191 437.855C372.551 450.949 353.008 461.418 332.145 468.867ZM416.988 414.453C401.758 409.539 385.184 405.387 367.625 402.031C372.141 389.461 376.07 375.973 379.355 361.898H455.074C444.816 381.414 431.945 399.117 416.988 414.453V414.453ZM482 332C446.883 332 55.2695 332 30 332V180H482V332Z" fill="white"/>
<path d="M322.707 212.582C315.301 208.879 306.289 211.883 302.582 219.289L286 252.461L269.418 219.293C266.875 214.211 261.684 211 256 211C250.316 211 245.125 214.211 242.582 219.293L226 252.461L209.418 219.293C205.711 211.883 196.703 208.879 189.293 212.586C181.883 216.289 178.879 225.301 182.586 232.711L212.586 292.711C218.098 303.738 233.895 303.754 239.418 292.711L256 259.539L272.582 292.707C278.098 303.738 293.895 303.754 299.414 292.707L329.414 232.707C333.121 225.297 330.117 216.289 322.707 212.582V212.582Z" fill="white"/>
<path d="M391 256C391 264.285 384.285 271 376 271C367.715 271 361 264.285 361 256C361 247.715 367.715 241 376 241C384.285 241 391 247.715 391 256Z" fill="white"/>
<path d="M151 256C151 264.285 144.285 271 136 271C127.715 271 121 264.285 121 256C121 247.715 127.715 241 136 241C144.285 241 151 247.715 151 256Z" fill="white"/>
<path d="M91 256C91 264.285 84.2852 271 76 271C67.7148 271 61 264.285 61 256C61 247.715 67.7148 241 76 241C84.2852 241 91 247.715 91 256Z" fill="white"/>
<path d="M451 256C451 264.285 444.285 271 436 271C427.715 271 421 264.285 421 256C421 247.715 427.715 241 436 241C444.285 241 451 247.715 451 256Z" fill="white"/>
</svg>
