<svg width="512" height="512" viewBox="0 0 512 512" fill="none" xmlns="http://www.w3.org/2000/svg">
<g clip-path="url(#clip0)">
<path d="M249.293 122.586L219.293 137.586C211.883 141.289 208.879 150.301 212.586 157.711C216.289 165.117 225.301 168.121 232.711 164.418L256 152.77L279.293 164.418C286.711 168.129 295.719 165.109 299.418 157.711C303.121 150.301 300.117 141.289 292.711 137.586L262.711 122.586C258.484 120.473 253.516 120.473 249.293 122.586Z" fill="white"/>
<path d="M512 136.023C512.012 130.344 508.809 125.145 503.73 122.594L262.73 1.59375C258.496 -0.53125 253.504 -0.53125 249.27 1.59375L8.26953 122.594C3.19141 125.145 -0.00781348 130.344 -9.82636e-07 136.023C0.00781152 141.707 3.22656 146.895 8.3125 149.43L101.957 196.055L8.32422 242.566C3.23047 245.098 0.00390527 250.301 -9.82636e-07 255.992C-9.82636e-07 261.687 3.21875 266.891 8.31641 269.426L101.957 316.055L8.32812 362.566C3.23437 365.094 0.0117178 370.285 -9.82636e-07 375.969V376C-9.82636e-07 381.672 3.19922 386.859 8.26953 389.406L249.27 510.406C251.387 511.469 253.695 512 256 512C258.305 512 260.613 511.469 262.73 510.406L503.73 389.406C508.801 386.859 512 381.672 512 376C512 375.988 512 375.98 512 375.969C511.988 370.285 508.766 365.094 503.672 362.566L410.043 316.055L503.684 269.426C508.781 266.891 512 261.687 512 255.992C511.996 250.301 508.77 245.098 503.672 242.566L410.043 196.055L503.684 149.426C508.773 146.895 511.992 141.707 512 136.023V136.023ZM463.43 376.07L256 480.215L48.5742 376.07L135.633 332.82L249.316 389.426C251.422 390.477 253.711 391 256 391C258.293 391 260.582 390.477 262.687 389.426L376.367 332.82L463.43 376.07ZM463.316 256.016L376.352 299.316L349.133 285.797C341.715 282.109 332.711 285.137 329.027 292.555C325.324 300.004 328.395 308.992 335.785 312.664L342.676 316.086L256 359.242L169.324 316.086L176.215 312.664C183.613 308.988 186.672 299.996 182.977 292.555C179.293 285.137 170.289 282.109 162.867 285.797L135.648 299.316L48.6836 256.016L135.633 212.824L222.402 256.027L219.293 257.586C211.883 261.289 208.879 270.301 212.586 277.711C216.289 285.117 225.301 288.121 232.711 284.418L256 272.77L279.293 284.418C286.711 288.129 295.719 285.109 299.418 277.711C303.121 270.301 300.117 261.289 292.711 257.586L289.598 256.027L376.367 212.824L463.316 256.016ZM376.352 179.316L349.133 165.797C341.715 162.109 332.711 165.137 329.027 172.555C325.324 180.004 328.395 188.992 335.785 192.664L342.676 196.086L256 239.242L169.324 196.086L176.215 192.664C183.613 188.988 186.672 179.996 182.977 172.555C179.293 165.137 170.289 162.109 162.867 165.797L135.648 179.316L48.543 135.945L256 31.7852L463.461 135.945L376.352 179.316Z" fill="white"/>
</g>
<defs>
<clipPath id="clip0">
<rect width="512.001" height="512" fill="white"/>
</clipPath>
</defs>
</svg>
