<svg width="81" height="81" viewBox="0 0 81 81" fill="none" xmlns="http://www.w3.org/2000/svg">
<circle cx="40.5" cy="40.5" r="40.5" fill="white"/>
<path d="M24.2976 24.998H19.8245L32.0193 59.47L38.8464 39.9607L33.5533 24.998H28.8338V21.7133H49.7333V24.998H44.8391L57.0338 59.47L61.4173 46.9431C67.1676 30.8938 56.7043 25.8944 56.7043 22.3126C56.7043 18.7308 59.608 15.8273 63.1896 15.8273C63.3834 15.8273 63.5715 15.8378 63.7559 15.855C57.6872 10.1261 49.504 6.61285 40.4996 6.61285C28.7339 6.61285 18.3701 12.6101 12.2947 21.7133H24.2972V24.998H24.2976Z" fill="#00769D"/>
<path d="M6.61279 40.5C6.61279 53.4738 13.9048 64.7428 24.6128 70.4372L9.32013 27.2083C7.57808 31.2895 6.61279 35.7819 6.61279 40.5Z" fill="#00769D"/>
<path d="M69.9918 23.8015C70.4765 26.6556 70.3298 29.8634 69.5859 33.0837H69.7207L69.2083 34.5478C68.9047 35.605 68.5224 36.6865 68.0882 37.7491L56.428 70.4153C67.1135 64.7141 74.3869 53.4572 74.3869 40.4998C74.3869 34.4282 72.7885 28.7304 69.9918 23.8015Z" fill="#00769D"/>
<path d="M30.0488 72.7419C33.3409 73.8084 36.8525 74.3868 40.5 74.3868C43.979 74.3868 47.3352 73.8618 50.4947 72.8878L40.5823 44.8678L30.0488 72.7419Z" fill="#00769D"/>
<path d="M69.1377 11.8621C61.4883 4.21271 51.3178 0 40.4998 0C29.6819 0 19.5115 4.21271 11.8621 11.8621C4.21271 19.5115 0 29.6819 0 40.5C0 51.3179 4.21271 61.4883 11.8621 69.1377C19.5115 76.7871 29.6821 80.9998 40.5 80.9998C51.3179 80.9998 61.4883 76.7871 69.1379 69.1377C76.7873 61.4883 81 51.3178 81 40.5C80.9998 29.6819 76.7871 19.5115 69.1377 11.8621ZM40.4998 78.1429C19.7435 78.1429 2.85697 61.2564 2.85697 40.5C2.85697 19.7437 19.7435 2.85697 40.4998 2.85697C61.2562 2.85697 78.1427 19.7437 78.1427 40.5C78.1427 61.2564 61.2563 78.1429 40.4998 78.1429Z" fill="#00769D"/>
</svg>
